<?xml version="1.0" encoding="UTF-8" standalone="no"?>
<svg
   xmlns:dc="http://purl.org/dc/elements/1.1/"
   xmlns:cc="http://creativecommons.org/ns#"
   xmlns:rdf="http://www.w3.org/1999/02/22-rdf-syntax-ns#"
   xmlns:svg="http://www.w3.org/2000/svg"
   xmlns="http://www.w3.org/2000/svg"
   xmlns:sodipodi="http://sodipodi.sourceforge.net/DTD/sodipodi-0.dtd"
   xmlns:inkscape="http://www.inkscape.org/namespaces/inkscape"
   version="1.0"
   width="48"
   height="36"
   viewBox="0 0 38.4 28.8"
   preserveAspectRatio="xMidYMid meet"
   id="svg2"
   inkscape:version="0.91 r13725"
   sodipodi:docname="logo_rectangular_small.svg">
  <defs
     id="defs12" />
  <sodipodi:namedview
     pagecolor="#ffffff"
     bordercolor="#666666"
     borderopacity="1"
     objecttolerance="10"
     gridtolerance="10"
     guidetolerance="10"
     inkscape:pageopacity="0"
     inkscape:pageshadow="2"
     inkscape:window-width="1920"
     inkscape:window-height="1017"
     id="namedview10"
     showgrid="false"
     units="px"
     inkscape:zoom="0.32881356"
     inkscape:cx="442.5"
     inkscape:cy="337.5"
     inkscape:window-x="-8"
     inkscape:window-y="-8"
     inkscape:window-maximized="1"
     inkscape:current-layer="svg2" />
  <metadata
     id="metadata4">
Created by potrace 1.13, written by Peter Selinger 2001-2015
<rdf:RDF>
  <cc:Work
     rdf:about="">
    <dc:format>image/svg+xml</dc:format>
    <dc:type
       rdf:resource="http://purl.org/dc/dcmitype/StillImage" />
    <dc:title></dc:title>
  </cc:Work>
</rdf:RDF>
</metadata>
  <g
     transform="matrix(0.00595996,0,0,-0.00598131,-1.936987,30.6243)"
     id="g6"
     style="fill:#000000;stroke:none">
    <path
       d="M 1120,4325 325,3530 1938,1917 3550,305 5160,1915 c 886,886 1609,1615 1608,1621 -2,7 -355,366 -785,798 l -782,786 -1643,0 -1643,0 -795,-795 z m 3037,-162 -577,-578 -577,578 -578,577 1155,0 1155,0 -578,-577 z m -1373,-362 799,-799 785,789 786,790 518,-518 c 285,-285 518,-522 518,-528 0,-6 -594,-604 -1320,-1330 L 3550,885 2228,2207 905,3530 l 535,535 c 294,294 537,535 540,535 3,0 365,-360 804,-799 z"
       id="path8"
       inkscape:connector-curvature="0" />
  </g>
</svg>
