<?xml version="1.0" encoding="UTF-8" standalone="no"?>
<svg
   xmlns:dc="http://purl.org/dc/elements/1.1/"
   xmlns:cc="http://creativecommons.org/ns#"
   xmlns:rdf="http://www.w3.org/1999/02/22-rdf-syntax-ns#"
   xmlns:svg="http://www.w3.org/2000/svg"
   xmlns="http://www.w3.org/2000/svg"
   xmlns:sodipodi="http://sodipodi.sourceforge.net/DTD/sodipodi-0.dtd"
   xmlns:inkscape="http://www.inkscape.org/namespaces/inkscape"
   version="1.0"
   width="19"
   height="19"
   viewBox="0 0 15.2 15.2"
   preserveAspectRatio="xMidYMid meet"
   id="svg2"
   inkscape:version="0.91 r13725"
   sodipodi:docname="cd-ami.svg">
  <defs
     id="defs26" />
  <sodipodi:namedview
     pagecolor="#ffffff"
     bordercolor="#666666"
     borderopacity="1"
     objecttolerance="10"
     gridtolerance="10"
     guidetolerance="10"
     inkscape:pageopacity="0"
     inkscape:pageshadow="2"
     inkscape:window-width="1920"
     inkscape:window-height="1017"
     id="namedview24"
     showgrid="false"
     units="px"
     inkscape:zoom="11.125147"
     inkscape:cx="20.622061"
     inkscape:cy="21.813491"
     inkscape:window-x="-8"
     inkscape:window-y="-8"
     inkscape:window-maximized="1"
     inkscape:current-layer="svg2" />
  <metadata
     id="metadata4">
Created by potrace 1.13, written by Peter Selinger 2001-2015
<rdf:RDF>
  <cc:Work
     rdf:about="">
    <dc:format>image/svg+xml</dc:format>
    <dc:type
       rdf:resource="http://purl.org/dc/dcmitype/StillImage" />
    <dc:title></dc:title>
  </cc:Work>
</rdf:RDF>
</metadata>
  <g
     transform="matrix(0.01583333,0,0,-0.01583333,0,15.2)"
     id="g6"
     style="fill:#44a5e9;stroke:none">
    <path
       d="m 360,840 0,-120 120,0 120,0 0,120 0,120 -120,0 -120,0 0,-120 z"
       id="path8"
       inkscape:connector-curvature="0" />
    <path
       d="M 242,867 C 199,854 127,789 107,748 99,730 89,698 85,678 l -7,-38 40,0 c 38,0 40,2 46,35 10,52 60,103 112,116 43,11 44,13 44,50 0,34 -3,39 -22,38 -13,-1 -38,-6 -56,-12 z"
       id="path10"
       inkscape:connector-curvature="0" />
    <path
       d="m 640,841 c 0,-36 2,-39 35,-45 51,-10 103,-60 117,-112 12,-42 14,-44 50,-44 43,0 46,7 26,74 -16,55 -99,138 -154,154 -67,20 -74,17 -74,-27 z"
       id="path12"
       inkscape:connector-curvature="0" />
    <path
       d="m 0,480 0,-120 120,0 120,0 0,120 0,120 -120,0 -120,0 0,-120 z"
       id="path14"
       inkscape:connector-curvature="0" />
    <path
       d="m 720,480 0,-120 120,0 120,0 0,120 0,120 -120,0 -120,0 0,-120 z"
       id="path16"
       inkscape:connector-curvature="0" />
    <path
       d="m 80,304 c 0,-38 26,-97 59,-135 36,-43 118,-89 159,-89 19,0 22,5 22,38 0,36 -2,38 -44,50 -52,14 -102,66 -112,117 -6,33 -9,35 -45,35 -29,0 -39,-4 -39,-16 z"
       id="path18"
       inkscape:connector-curvature="0" />
    <path
       d="M 796,285 C 786,234 736,182 684,168 642,156 640,154 640,117 l 0,-40 42,7 c 100,16 198,124 198,219 0,13 -8,17 -39,17 -36,0 -39,-2 -45,-35 z"
       id="path20"
       inkscape:connector-curvature="0" />
    <path
       d="m 360,120 0,-120 120,0 120,0 0,120 0,120 -120,0 -120,0 0,-120 z"
       id="path22"
       inkscape:connector-curvature="0" />
  </g>
</svg>
