<?xml version="1.0" encoding="UTF-8" standalone="no"?>
<svg
   xmlns:dc="http://purl.org/dc/elements/1.1/"
   xmlns:cc="http://creativecommons.org/ns#"
   xmlns:rdf="http://www.w3.org/1999/02/22-rdf-syntax-ns#"
   xmlns:svg="http://www.w3.org/2000/svg"
   xmlns="http://www.w3.org/2000/svg"
   xmlns:sodipodi="http://sodipodi.sourceforge.net/DTD/sodipodi-0.dtd"
   xmlns:inkscape="http://www.inkscape.org/namespaces/inkscape"
   version="1.0"
   width="19"
   height="19"
   viewBox="0 0 15.2 15.2"
   preserveAspectRatio="xMidYMid meet"
   id="svg2"
   inkscape:version="0.91 r13725"
   sodipodi:docname="cd-command.svg">
  <defs
     id="defs14" />
  <sodipodi:namedview
     pagecolor="#ffffff"
     bordercolor="#666666"
     borderopacity="1"
     objecttolerance="10"
     gridtolerance="10"
     guidetolerance="10"
     inkscape:pageopacity="0"
     inkscape:pageshadow="2"
     inkscape:window-width="1920"
     inkscape:window-height="1017"
     id="namedview12"
     showgrid="false"
     units="px"
     inkscape:zoom="1.9666667"
     inkscape:cx="60"
     inkscape:cy="60"
     inkscape:window-x="-8"
     inkscape:window-y="-8"
     inkscape:window-maximized="1"
     inkscape:current-layer="svg2" />
  <metadata
     id="metadata4">
Created by potrace 1.13, written by Peter Selinger 2001-2015
<rdf:RDF>
  <cc:Work
     rdf:about="">
    <dc:format>image/svg+xml</dc:format>
    <dc:type
       rdf:resource="http://purl.org/dc/dcmitype/StillImage" />
    <dc:title></dc:title>
  </cc:Work>
</rdf:RDF>
</metadata>
  <g
     transform="matrix(0.02111111,0,0,-0.02111111,-2.5333332,18.366666)"
     id="g6"
     style="fill:#44a5e9;stroke:none">
    <path
       d="m 120,480 0,-330 360,0 360,0 0,330 0,330 -360,0 -360,0 0,-330 z m 660,240 0,-30 -300,0 -300,0 0,30 0,30 300,0 300,0 0,-30 z m 0,-300 0,-210 -300,0 -300,0 0,210 0,210 300,0 300,0 0,-210 z"
       id="path8"
       inkscape:connector-curvature="0" />
    <path
       d="m 315,520 c -18,-20 -18,-21 20,-60 l 39,-40 -37,-38 c -42,-43 -44,-52 -19,-75 17,-16 22,-13 82,48 l 64,65 -59,60 c -33,33 -62,60 -66,60 -3,0 -14,-9 -24,-20 z"
       id="path10"
       inkscape:connector-curvature="0" />
  </g>
</svg>
