<?xml version="1.0" encoding="UTF-8" standalone="no"?>
<svg
   xmlns:dc="http://purl.org/dc/elements/1.1/"
   xmlns:cc="http://creativecommons.org/ns#"
   xmlns:rdf="http://www.w3.org/1999/02/22-rdf-syntax-ns#"
   xmlns:svg="http://www.w3.org/2000/svg"
   xmlns="http://www.w3.org/2000/svg"
   xmlns:sodipodi="http://sodipodi.sourceforge.net/DTD/sodipodi-0.dtd"
   xmlns:inkscape="http://www.inkscape.org/namespaces/inkscape"
   version="1.0"
   width="19"
   height="19"
   viewBox="0 0 15.2 15.2"
   preserveAspectRatio="xMidYMid meet"
   id="svg2"
   inkscape:version="0.91 r13725"
   sodipodi:docname="cd-norma.svg">
  <defs
     id="defs14" />
  <sodipodi:namedview
     pagecolor="#ffffff"
     bordercolor="#666666"
     borderopacity="1"
     objecttolerance="10"
     gridtolerance="10"
     guidetolerance="10"
     inkscape:pageopacity="0"
     inkscape:pageshadow="2"
     inkscape:window-width="1920"
     inkscape:window-height="1017"
     id="namedview12"
     showgrid="false"
     units="px"
     inkscape:zoom="15.104"
     inkscape:cx="27.965844"
     inkscape:cy="25.19601"
     inkscape:window-x="-8"
     inkscape:window-y="-8"
     inkscape:window-maximized="1"
     inkscape:current-layer="svg2" />
  <metadata
     id="metadata4">
Created by potrace 1.13, written by Peter Selinger 2001-2015
<rdf:RDF>
  <cc:Work
     rdf:about="">
    <dc:format>image/svg+xml</dc:format>
    <dc:type
       rdf:resource="http://purl.org/dc/dcmitype/StillImage" />
    <dc:title></dc:title>
  </cc:Work>
</rdf:RDF>
</metadata>
  <g
     transform="matrix(0.01662128,0,0,-0.01662128,-0.6772768,15.92742)"
     id="g6"
     style="fill:#44a5e9;stroke:none">
    <path
       d="m 67,953 c -4,-3 -7,-23 -7,-43 0,-35 13,-51 166,-214 l 166,-176 108,0 108,0 167,176 c 164,175 166,177 163,218 l -3,41 -431,3 C 267,959 70,957 67,953 Z"
       id="path8"
       inkscape:connector-curvature="0" />
    <path
       d="m 382,323 3,-158 104,-63 c 57,-35 109,-61 117,-58 11,4 14,46 14,221 l 0,215 -120,0 -121,0 3,-157 z"
       id="path10"
       inkscape:connector-curvature="0" />
  </g>
</svg>
