<?xml version="1.0" encoding="UTF-8" standalone="no"?>
<svg
   xmlns:dc="http://purl.org/dc/elements/1.1/"
   xmlns:cc="http://creativecommons.org/ns#"
   xmlns:rdf="http://www.w3.org/1999/02/22-rdf-syntax-ns#"
   xmlns:svg="http://www.w3.org/2000/svg"
   xmlns="http://www.w3.org/2000/svg"
   xmlns:sodipodi="http://sodipodi.sourceforge.net/DTD/sodipodi-0.dtd"
   xmlns:inkscape="http://www.inkscape.org/namespaces/inkscape"
   version="1.0"
   width="19"
   height="19"
   viewBox="0 0 15.2 15.2"
   preserveAspectRatio="xMidYMid meet"
   id="svg2"
   inkscape:version="0.91 r13725"
   sodipodi:docname="cd-quickscrape.svg">
  <defs
     id="defs16" />
  <sodipodi:namedview
     pagecolor="#ffffff"
     bordercolor="#666666"
     borderopacity="1"
     objecttolerance="10"
     gridtolerance="10"
     guidetolerance="10"
     inkscape:pageopacity="0"
     inkscape:pageshadow="2"
     inkscape:window-width="1920"
     inkscape:window-height="1017"
     id="namedview14"
     showgrid="false"
     units="px"
     inkscape:zoom="32"
     inkscape:cx="12.446018"
     inkscape:cy="8.9101799"
     inkscape:window-x="-8"
     inkscape:window-y="-8"
     inkscape:window-maximized="1"
     inkscape:current-layer="svg2" />
  <metadata
     id="metadata4">
Created by potrace 1.13, written by Peter Selinger 2001-2015
<rdf:RDF>
  <cc:Work
     rdf:about="">
    <dc:format>image/svg+xml</dc:format>
    <dc:type
       rdf:resource="http://purl.org/dc/dcmitype/StillImage" />
    <dc:title></dc:title>
  </cc:Work>
</rdf:RDF>
</metadata>
  <g
     transform="matrix(0.01188031,0,0,-0.01188031,-0.00702663,15.32427)"
     id="g6"
     style="fill:#44a5e9;stroke:none">
    <path
       d="M 535,1174 C 392,1144 288,1088 189,991 2,804 -52,517 55,282 c 35,-76 51,-92 93,-92 38,0 148,55 157,79 3,7 -2,25 -11,38 -16,25 -33,27 -75,9 -12,-5 -20,3 -32,36 -41,113 -48,211 -21,313 18,73 23,79 57,66 30,-11 50,2 63,41 5,16 1,26 -15,36 -31,21 -27,34 27,84 77,72 164,116 260,133 l 42,7 0,-47 0,-46 43,3 c 42,3 42,3 45,46 4,48 6,49 83,26 84,-25 161,-70 219,-129 l 53,-54 -29,-25 c -29,-24 -29,-25 -12,-53 17,-28 32,-31 74,-18 19,6 23,0 39,-57 26,-87 24,-196 -3,-278 -29,-86 -38,-98 -54,-82 -21,21 -57,14 -70,-12 -16,-35 -6,-50 55,-85 96,-55 143,-39 186,62 36,83 51,161 51,262 0,110 -18,191 -60,274 -115,228 -333,363 -579,360 -47,-1 -95,-3 -106,-5 z"
       id="path8"
       inkscape:connector-curvature="0" />
    <path
       d="m 591,626 c -53,-30 -66,-97 -26,-144 33,-39 75,-49 117,-27 22,11 90,22 208,32 167,14 200,22 200,47 -1,34 -20,40 -193,57 -111,11 -185,22 -205,33 -37,19 -69,20 -101,2 z"
       id="path10"
       inkscape:connector-curvature="0" />
    <path
       d="m 460,230 c -25,-25 -27,-91 -4,-114 23,-24 345,-24 368,0 23,23 21,89 -4,114 -18,18 -33,20 -180,20 -147,0 -162,-2 -180,-20 z"
       id="path12"
       inkscape:connector-curvature="0" />
  </g>
</svg>
