<?xml version="1.0" encoding="UTF-8" standalone="no"?>
<svg
   xmlns:dc="http://purl.org/dc/elements/1.1/"
   xmlns:cc="http://creativecommons.org/ns#"
   xmlns:rdf="http://www.w3.org/1999/02/22-rdf-syntax-ns#"
   xmlns:svg="http://www.w3.org/2000/svg"
   xmlns="http://www.w3.org/2000/svg"
   xmlns:sodipodi="http://sodipodi.sourceforge.net/DTD/sodipodi-0.dtd"
   xmlns:inkscape="http://www.inkscape.org/namespaces/inkscape"
   x="0px"
   y="0px"
   width="19"
   height="38"
   viewBox="0 0 19 38"
   id="svg2"
   version="1.1"
   inkscape:version="0.91 r13725"
   sodipodi:docname="cd-search.svg">
  <metadata
     id="metadata16">
    <rdf:RDF>
      <cc:Work
         rdf:about="">
        <dc:format>image/svg+xml</dc:format>
        <dc:type
           rdf:resource="http://purl.org/dc/dcmitype/StillImage" />
        <dc:title></dc:title>
      </cc:Work>
    </rdf:RDF>
  </metadata>
  <defs
     id="defs14" />
  <sodipodi:namedview
     pagecolor="#ffffff"
     bordercolor="#666666"
     borderopacity="1"
     objecttolerance="10"
     gridtolerance="10"
     guidetolerance="10"
     inkscape:pageopacity="0"
     inkscape:pageshadow="2"
     inkscape:window-width="1920"
     inkscape:window-height="1017"
     id="namedview12"
     showgrid="false"
     inkscape:zoom="7.375"
     inkscape:cx="-15.118644"
     inkscape:cy="16"
     inkscape:window-x="-8"
     inkscape:window-y="-8"
     inkscape:window-maximized="1"
     inkscape:current-layer="svg2" />
  <g
     transform="matrix(1.1875,0,0,1.1838006,-0.0084746,0.06694896)"
     id="g4">
    <path
       d="M 12.7,11.3 C 13.6,10.1 14.1,8.7 14.1,7.1 14.1,3.2 11,0 7.1,0 3.2,0 0,3.2 0,7.1 c 0,3.9 3.2,7.1 7.1,7.1 1.6,0 3.1,-0.5 4.2,-1.4 l 3,3 c 0.2,0.2 0.5,0.3 0.7,0.3 0.2,0 0.5,-0.1 0.7,-0.3 0.4,-0.4 0.4,-1 0,-1.4 l -3,-3.1 z M 7.1,12.1 C 4.3,12.1 2,9.9 2,7.1 2,4.3 4.3,2 7.1,2 c 2.8,0 5.1,2.3 5.1,5.1 0,2.8 -2.3,5 -5.1,5 z"
       id="path6"
       inkscape:connector-curvature="0"
       style="fill:#3e454c" />
  </g>
  <g
     transform="matrix(1.1875,0,0,1.1838006,-0.0084746,19.007759)"
     id="g8">
    <path
       d="M 12.7,11.3 C 13.6,10.1 14.1,8.7 14.1,7.1 14.1,3.2 11,0 7.1,0 3.2,0 0,3.2 0,7.1 c 0,3.9 3.2,7.1 7.1,7.1 1.6,0 3.1,-0.5 4.2,-1.4 l 3,3 c 0.2,0.2 0.5,0.3 0.7,0.3 0.2,0 0.5,-0.1 0.7,-0.3 0.4,-0.4 0.4,-1 0,-1.4 l -3,-3.1 z M 7.1,12.1 C 4.3,12.1 2,9.9 2,7.1 2,4.3 4.3,2 7.1,2 c 2.8,0 5.1,2.3 5.1,5.1 0,2.8 -2.3,5 -5.1,5 z"
       id="path10"
       inkscape:connector-curvature="0"
       style="fill:#ffffff" />
  </g>
</svg>
